<?xml version="1.0" encoding="UTF-8"?>
<svg viewBox="0 0 100 100" xmlns="http://www.w3.org/2000/svg">
  <rect width="100" height="100" fill="#87ceeb" stroke="#2d4a3e" stroke-width="4" rx="15"/>
  <g transform="translate(20, 20)">
    <circle cx="30" cy="20" r="8" fill="none" stroke="#2d4a3e" stroke-width="3" stroke-linecap="round"/>
    <path d="M30 28 L30 45" stroke="#2d4a3e" stroke-width="3" stroke-linecap="round"/>
    <path d="M22 35 L38 35" stroke="#2d4a3e" stroke-width="3" stroke-linecap="round"/>
    <path d="M30 45 L25 55" stroke="#2d4a3e" stroke-width="3" stroke-linecap="round"/>
    <path d="M30 45 L35 55" stroke="#2d4a3e" stroke-width="3" stroke-linecap="round"/>
    <path d="M10 25 Q15 20 20 25 Q25 30 30 25 Q35 20 40 25 Q45 30 50 25" stroke="#2d4a3e" stroke-width="3" fill="none" stroke-linecap="round"/>
    <path d="M10 15 Q15 10 20 15 Q25 20 30 15 Q35 10 40 15 Q45 20 50 15" stroke="#2d4a3e" stroke-width="3" fill="none" stroke-linecap="round"/>
  </g>
</svg>