<?xml version="1.0" encoding="UTF-8"?>
<svg viewBox="0 0 100 100" xmlns="http://www.w3.org/2000/svg">
  <rect width="100" height="100" fill="#e8eaf6" stroke="#2d4a3e" stroke-width="4" rx="15"/>
  <g transform="translate(20, 20)">
    <circle cx="30" cy="20" r="8" fill="none" stroke="#2d4a3e" stroke-width="3" stroke-linecap="round"/>
    <path d="M30 28 L30 45" stroke="#2d4a3e" stroke-width="3" stroke-linecap="round"/>
    <path d="M22 35 L38 35" stroke="#2d4a3e" stroke-width="3" stroke-linecap="round"/>
    <path d="M30 45 L25 55" stroke="#2d4a3e" stroke-width="3" stroke-linecap="round"/>
    <path d="M30 45 L35 55" stroke="#2d4a3e" stroke-width="3" stroke-linecap="round"/>
    <path d="M10 40 Q15 35 20 40 Q25 45 30 40 Q35 35 40 40 Q45 45 50 40" stroke="#2d4a3e" stroke-width="3" fill="none" stroke-linecap="round"/>
    <path d="M8 45 Q13 40 18 45 Q23 50 28 45 Q33 40 38 45 Q43 50 48 45" stroke="#2d4a3e" stroke-width="3" fill="none" stroke-linecap="round"/>
  </g>
</svg>